# xmcd
#
# Track frame offsets:
#  150
#  19885
#  36640
#  58470
#  79439
#  99403
#  114136
#  137315
#  157949
#  196967
#  216254
#  239269
#  256459
#  273739
#  289736
#  309930
#  332150
#
# Disc length: 4651 seconds
#
# Revision: 0
# Processed by: cddbd v1.5.1PL2 Copyright (c) Steve Scherf et al.
# Submitted via: Collectorz.com_Music_Collector 6.11
#
DISCID=fa122911
DTITLE=Jeffery Osborne - Compilation Album
DYEAR=1900
DGENRE=
TTITLE0=Jeffery Osborne (LTD) - We're Going All The Way
TTITLE1=jeffrey osborne - Far Longer Than Forever
TTITLE2=jeffrey osborne - Concentrate On You
TTITLE3=jeffrey osborne - Love Ballad
TTITLE4=jeffrey osborne - Share My Love
TTITLE5=jeffrey osborne - You Fooled Me.
TTITLE6=jeffrey osborne - Close the Door
TTITLE7=jeffrey osborne - Stranger (1)
TTITLE8=jeffrey osborne - back in love again
TTITLE9=jeffrey osborne - Woo
TTITLE10=jeffrey osborne - Greatest Love Affair
TTITLE11=jeffrey osborne - Don't You Get So Mad
TTITLE12=jeffrey osborne - Congratulations
TTITLE13=jeffrey osborne - Crazy 'Bout 'Cha
TTITLE14=Jeffery Osborne- Just Once
TTITLE15=Only Human
TTITLE16=I Really Don't Need No Light
EXTD=
EXTT0=
EXTT1=
EXTT2=
EXTT3=
EXTT4=
EXTT5=
EXTT6=
EXTT7=
EXTT8=
EXTT9=
EXTT10=
EXTT11=
EXTT12=
EXTT13=
EXTT14=
EXTT15=
EXTT16=
PLAYORDER=
